# xmcd
#
# Track frame offsets:
#	150
#	15927
#	32562
#	47698
#	62720
#	77759
#	95862
#	111330
#	125016
#	140422
#	155527
#	172073
#	186218
#	201941
#	230646
#
# Disc length: 4440
#
# Revision: 2
# Processed by: cddbd v1.5.1PL0 Copyright (c) Steve Scherf et al.
# Submitted via: audiograbber 1.83.01
# Normalized: r1:DSETVAR1
#
DISCID=d211560f
DTITLE=Various Artist - Goldene Schlagerparade 2/2004
DYEAR=2004
DGENRE=Schlager
TTITLE0=Kristina Bach - Die Erde hat mich wieder
TTITLE1=Matthias Reim - Träume
TTITLE2=Simone - Die Frau im Zug
TTITLE3=René Meyer - Du hast mir zuviel gegeben
TTITLE4=Vivian Lindt - Mach es gut Cherie
TTITLE5=G G Anderson - Stern an der Playa del Sol
TTITLE6=Francine Jordi - Alles steht und fällt mit dir
TTITLE7=Die Paldauer - Ich bin da um dich zu lieben
TTITLE8=Ingrid Peters - Das kommt mir so bekannt vor
TTITLE9=Sonja Christin - ich komm bald wieder nach Athen
TTITLE10=Trenkwalder - Nit so etepetete
TTITLE11=Mario - Wie ein Bilderbuch
TTITLE12=Christian Steffen - Wir wollen im Leben so vieles erleben
TTITLE13=Klostertaler - Heyo, du musst ein Engel sein
TTITLE14=data - Daten-CD
EXTD=
EXTT0=
EXTT1=
EXTT2=
EXTT3=
EXTT4=
EXTT5=
EXTT6=
EXTT7=
EXTT8=
EXTT9=
EXTT10=
EXTT11=
EXTT12=
EXTT13=
EXTT14=
PLAYORDER=
